HIERARCHY
ROOT joint_Root
{
	OFFSET 0.0 0.0 0.0
	CHANNELS 6 Xposition Yposition Zposition Zrotation Xrotation Yrotation 
	JOINT Hips
	{
		OFFSET 4.5925 91.4895 -427.239
		CHANNELS 6 Xposition Yposition Zposition Zrotation Xrotation Yrotation 
		JOINT Spine
		{
			OFFSET 15.7357 0.0 0.0
			CHANNELS 6 Xposition Yposition Zposition Zrotation Xrotation Yrotation 
			JOINT Chest
			{
				OFFSET 8.98455 -0.406207 0.0
				CHANNELS 6 Xposition Yposition Zposition Zrotation Xrotation Yrotation 
				JOINT Neck
				{
					OFFSET 16.3773 0.0 0.0
					CHANNELS 6 Xposition Yposition Zposition Zrotation Xrotation Yrotation 
					JOINT Head
					{
						OFFSET 6.45672 0.0 0.0
						CHANNELS 6 Xposition Yposition Zposition Zrotation Xrotation Yrotation 
						End Site
						{
							OFFSET 0.0 0.0 0.0
						}
					}
				}
				JOINT Shoulder_L
				{
					OFFSET 12.9942 -0.242716 4.98039
					CHANNELS 6 Xposition Yposition Zposition Zrotation Xrotation Yrotation 
					JOINT UpperArm_L
					{
						OFFSET 5.34809 0.0 0.0
						CHANNELS 6 Xposition Yposition Zposition Zrotation Xrotation Yrotation 
						JOINT LowerArm_L
						{
							OFFSET 24.3286 1.87007e-05 0.0
							CHANNELS 6 Xposition Yposition Zposition Zrotation Xrotation Yrotation 
							JOINT Hand_L
							{
								OFFSET 22.2916 0.0 0.0
								CHANNELS 6 Xposition Yposition Zposition Zrotation Xrotation Yrotation 
								End Site
								{
									OFFSET 0.0 0.0 0.0
								}
							}
						}
					}
				}
				JOINT Shoulder_R
				{
					OFFSET 12.9945 -0.242716 -4.98039
					CHANNELS 6 Xposition Yposition Zposition Zrotation Xrotation Yrotation 
					JOINT UpperArm_R
					{
						OFFSET -5.34813 0.0 0.0
						CHANNELS 6 Xposition Yposition Zposition Zrotation Xrotation Yrotation 
						JOINT LowerArm_R
						{
							OFFSET -24.3289 0.000322201 0.0
							CHANNELS 6 Xposition Yposition Zposition Zrotation Xrotation Yrotation 
							JOINT Hand_R
							{
								OFFSET -22.2915 -0.000108084 0.0
								CHANNELS 6 Xposition Yposition Zposition Zrotation Xrotation Yrotation 
								End Site
								{
									OFFSET 0.0 0.0 0.0
								}
							}
						}
					}
				}
			}
		}
		JOINT UpperLeg_L
		{
			OFFSET -2.19248 -6.46944 0.0
			CHANNELS 6 Xposition Yposition Zposition Zrotation Xrotation Yrotation 
			JOINT LowerLeg_L
			{
				OFFSET 39.0811 0.0 -1.23785e-05
				CHANNELS 6 Xposition Yposition Zposition Zrotation Xrotation Yrotation 
				JOINT Foot_L
				{
					OFFSET 40.9854 0.0 -1.26872e-05
					CHANNELS 6 Xposition Yposition Zposition Zrotation Xrotation Yrotation 
					JOINT Toes_L
					{
						OFFSET 11.7543 0.0 0.0
						CHANNELS 6 Xposition Yposition Zposition Zrotation Xrotation Yrotation 
						End Site
						{
							OFFSET 0.0 0.0 0.0
						}
					}
				}
			}
		}
		JOINT UpperLeg_R
		{
			OFFSET -2.19251 6.46944 0.0
			CHANNELS 6 Xposition Yposition Zposition Zrotation Xrotation Yrotation 
			JOINT LowerLeg_R
			{
				OFFSET -39.0811 -0.00228153 -0.0401928
				CHANNELS 6 Xposition Yposition Zposition Zrotation Xrotation Yrotation 
				JOINT Foot_R
				{
					OFFSET -40.9854 0.0 0.0
					CHANNELS 6 Xposition Yposition Zposition Zrotation Xrotation Yrotation 
					JOINT Toes_R
					{
						OFFSET -11.7543 0.0 0.0
						CHANNELS 6 Xposition Yposition Zposition Zrotation Xrotation Yrotation 
						End Site
						{
							OFFSET 0.0 0.0 0.0
						}
					}
				}
			}
		}
	}
}
MOTION
Frames:	7
Frame Time:	0.0333333
0.000000 0.000000 0.000000 0.000000 0.000000 -0.000000 8.421730 90.486500 0.815779 91.148100 -10.816300 12.235200 15.735700 0.000005 -0.000001 88.120100 83.156100 -89.987900 8.984550 -0.406207 -0.000000 5.910450 -0.417671 -3.709670 16.377300 -0.000001 -0.000001 34.987700 -4.208670 -2.762690 6.456720 -0.000001 -0.000000 17.045000 -2.962300 2.396100 12.994200 -0.242716 4.980390 -86.178300 -8.280150 -65.115500 5.348090 -0.000007 -0.000001 -67.013100 -52.380300 -95.406300 24.328600 0.000019 0.000005 19.098700 12.494800 -58.001700 22.291600 -0.000001 0.000005 30.074900 5.347360 -1.298310 12.994500 -0.242716 -4.980390 92.078100 -6.195770 -71.417100 -5.348130 -0.000001 -0.000004 -51.576100 -51.877300 -85.703300 -24.328900 0.000322 -0.000009 1.981410 1.666100 -49.973200 -22.291500 -0.000108 -0.000004 32.434300 5.600780 -11.389300 -2.192480 -6.469440 -0.000000 179.434000 -22.333400 4.993120 39.081100 -0.000007 -0.000012 -0.001572 0.002948 28.072300 40.985400 -0.000006 -0.000013 6.810460 4.018190 -72.181800 11.754300 -0.000000 0.000003 -0.000195 -0.001810 -16.645900 -2.192510 6.469440 -0.000001 166.274000 14.571900 -177.833000 -39.081100 -0.002282 -0.040193 -0.026561 0.051995 29.871000 -40.985400 0.000008 0.000006 1.191490 17.087400 -69.712600 -11.754300 -0.000006 -0.000006 -0.002639 -0.036451 -18.055400
0.000000 0.000000 0.000000 0.000000 0.000000 -0.000000 8.504990 90.466900 0.845535 91.145000 -10.907600 12.293100 15.735700 0.000005 -0.000001 88.360400 83.144000 -90.255900 8.984550 -0.406207 -0.000000 5.937220 -0.361110 -3.768000 16.377300 -0.000001 -0.000001 35.074500 -4.184410 -2.827180 6.456720 -0.000001 -0.000000 17.029000 -2.960700 2.301840 12.994200 -0.242716 4.980390 -86.163200 -8.298160 -65.076500 5.348090 -0.000007 -0.000001 -66.863200 -52.529700 -95.289200 24.328600 0.000019 0.000005 18.795900 12.322700 -57.909800 22.291600 -0.000001 0.000005 30.146900 5.344200 -1.203960 12.994500 -0.242716 -4.980390 92.062300 -6.155240 -71.436100 -5.348130 -0.000001 -0.000004 -51.719600 -51.984600 -85.761700 -24.328900 0.000322 -0.000009 1.985010 1.668130 -49.989600 -22.291500 -0.000108 -0.000004 32.537200 5.600880 -11.395700 -2.192480 -6.469440 -0.000000 179.383000 -22.338600 5.045530 39.081100 -0.000007 -0.000012 -0.001422 0.002664 28.106300 40.985400 -0.000006 -0.000013 6.842630 3.891100 -72.228400 11.754300 -0.000000 0.000003 -0.000178 -0.001676 -16.641000 -2.192510 6.469440 -0.000001 166.200000 14.564800 -177.821000 -39.081100 -0.002282 -0.040193 -0.024628 0.048526 29.923600 -40.985400 0.000008 0.000006 1.170950 17.162400 -69.717700 -11.754300 -0.000006 -0.000006 -0.002656 -0.036651 -18.063500
0.000000 0.000000 0.000000 0.000000 0.000000 -0.000000 8.583570 90.454800 0.876484 91.126000 -10.985200 12.361500 15.735700 0.000005 -0.000001 88.661100 83.142800 -90.573300 8.984550 -0.406207 -0.000000 5.942630 -0.289243 -3.805060 16.377300 -0.000001 -0.000001 35.173900 -4.179230 -2.979290 6.456720 -0.000001 -0.000000 17.092800 -2.923060 2.270910 12.994200 -0.242716 4.980390 -86.127200 -8.354630 -65.018600 5.348090 -0.000007 -0.000001 -66.673100 -52.611300 -95.305000 24.328600 0.000019 0.000005 18.903500 12.664400 -57.371700 22.291600 -0.000001 0.000005 29.870200 5.343830 -1.192860 12.994500 -0.242716 -4.980390 92.078200 -6.177440 -71.365000 -5.348130 -0.000001 -0.000004 -51.662600 -52.006500 -85.819900 -24.328900 0.000322 -0.000009 1.894410 1.617950 -49.532600 -22.291500 -0.000108 -0.000004 32.455200 5.599900 -11.336000 -2.192480 -6.469440 -0.000000 179.354000 -22.335800 5.134810 39.081100 -0.000007 -0.000012 0.002709 -0.005073 28.103500 40.985400 -0.000006 -0.000013 6.869550 3.772040 -72.260100 11.754300 -0.000000 0.000003 -0.000189 -0.001764 -16.644200 -2.192510 6.469440 -0.000001 166.179000 14.473800 -177.764000 -39.081100 -0.002282 -0.040193 -0.015125 0.031981 29.950200 -40.985400 0.000008 0.000006 1.315570 17.147200 -69.794000 -11.754300 -0.000006 -0.000006 -0.002568 -0.035610 -18.021200
0.000000 0.000000 0.000000 0.000000 0.000000 -0.000000 8.655050 90.440800 0.892922 91.080300 -11.018200 12.379400 15.735700 0.000005 -0.000001 88.754500 83.147500 -90.673500 8.984550 -0.406207 -0.000000 5.934290 -0.266506 -3.819770 16.377300 -0.000001 -0.000001 35.301800 -4.150870 -3.027410 6.456720 -0.000001 -0.000000 17.130900 -2.936310 2.080810 12.994200 -0.242716 4.980390 -86.124000 -8.336820 -64.954000 5.348090 -0.000007 -0.000001 -66.414500 -52.695200 -95.393700 24.328600 0.000019 0.000005 18.913800 13.023200 -56.668500 22.291600 -0.000001 0.000005 29.400800 5.341600 -1.126850 12.994500 -0.242716 -4.980390 92.088300 -6.191850 -71.320700 -5.348130 -0.000001 -0.000004 -51.323900 -52.058400 -85.766000 -24.328900 0.000322 -0.000009 1.849500 1.619790 -48.820300 -22.291500 -0.000108 -0.000004 32.385200 5.598780 -11.269900 -2.192480 -6.469440 -0.000000 179.365000 -22.355100 5.133950 39.081100 -0.000007 -0.000012 0.002347 -0.004383 28.166200 40.985400 -0.000006 -0.000013 6.915590 3.750000 -72.309500 11.754300 -0.000000 0.000003 -0.000186 -0.001745 -16.643500 -2.192510 6.469440 -0.000001 166.178000 14.509200 -177.766000 -39.081100 -0.002282 -0.040193 -0.010039 0.023123 29.983400 -40.985400 0.000008 0.000006 1.335030 17.153300 -69.795800 -11.754300 -0.000006 -0.000006 -0.002617 -0.036189 -18.044700
0.000000 0.000000 0.000000 0.000000 0.000000 -0.000000 8.708210 90.441800 0.909414 91.038000 -11.016700 12.428900 15.735700 0.000005 -0.000001 88.778100 83.144700 -90.711900 8.984550 -0.406207 -0.000000 5.940070 -0.260861 -3.849630 16.377300 -0.000001 -0.000001 35.370800 -4.173570 -3.109070 6.456720 -0.000001 -0.000000 17.161100 -2.933520 1.969840 12.994200 -0.242716 4.980390 -86.098800 -8.380100 -64.924300 5.348090 -0.000007 -0.000001 -66.560600 -52.686300 -95.578500 24.328600 0.000019 0.000005 19.155100 13.309300 -56.466100 22.291600 -0.000001 0.000005 28.952900 5.337570 -1.007660 12.994500 -0.242716 -4.980390 92.108300 -6.249850 -71.316200 -5.348130 -0.000001 -0.000004 -51.183900 -52.086800 -85.719500 -24.328900 0.000322 -0.000009 1.910170 1.709150 -48.211300 -22.291500 -0.000108 -0.000004 32.409900 5.597770 -11.209900 -2.192480 -6.469440 -0.000000 179.404000 -22.387100 5.220120 39.081100 -0.000007 -0.000012 0.001550 -0.002897 28.140600 40.985400 -0.000006 -0.000013 6.965630 3.785570 -72.320600 11.754300 -0.000000 0.000003 -0.000176 -0.001663 -16.640500 -2.192510 6.469440 -0.000001 166.193000 14.537400 -177.691000 -39.081100 -0.002282 -0.040193 0.005418 -0.003669 29.976300 -40.985400 0.000008 0.000006 1.573910 17.095700 -69.872100 -11.754300 -0.000006 -0.000006 -0.002651 -0.036593 -18.061200
0.000000 0.000000 0.000000 0.000000 0.000000 -0.000000 8.767890 90.432300 0.923220 91.035600 -11.004700 12.478200 15.735700 0.000005 -0.000001 88.829300 83.140400 -90.802000 8.984550 -0.406207 -0.000000 5.949220 -0.248356 -3.927900 16.377300 -0.000001 -0.000001 35.420100 -4.219010 -3.122770 6.456720 -0.000001 -0.000000 17.136200 -2.984530 1.872240 12.994200 -0.242716 4.980390 -86.102500 -8.382690 -64.952000 5.348090 -0.000007 -0.000001 -66.692600 -52.715700 -95.659900 24.328600 0.000019 0.000005 19.096100 13.153900 -56.682200 22.291600 -0.000001 0.000005 28.828500 5.337180 -0.996234 12.994500 -0.242716 -4.980390 92.124300 -6.266540 -71.230900 -5.348130 -0.000001 -0.000004 -51.404600 -51.976100 -85.847700 -24.328900 0.000322 -0.000009 1.744650 1.578810 -47.888300 -22.291500 -0.000108 -0.000004 32.412400 5.597310 -11.183200 -2.192480 -6.469440 -0.000000 179.402000 -22.430200 5.293000 39.081100 -0.000007 -0.000012 0.002139 -0.003999 28.142400 40.985400 -0.000006 -0.000013 7.017760 3.825460 -72.354000 11.754300 -0.000000 0.000003 -0.000180 -0.001692 -16.641600 -2.192510 6.469440 -0.000001 166.150000 14.525900 -177.645000 -39.081100 -0.002282 -0.040193 0.009197 -0.010209 30.002200 -40.985400 0.000008 0.000006 1.632000 17.057100 -69.909600 -11.754300 -0.000006 -0.000006 -0.002817 -0.038514 -18.139300
0.000000 0.000000 0.000000 0.000000 0.000000 -0.000000 8.818750 90.414300 0.929074 91.045500 -11.014600 12.499700 15.735700 0.000005 -0.000001 88.930300 83.140400 -90.963200 8.984550 -0.406207 -0.000000 5.950060 -0.223319 -4.049700 16.377300 -0.000001 -0.000001 35.385100 -4.284230 -3.199690 6.456720 -0.000001 -0.000000 17.060800 -3.008240 1.960860 12.994200 -0.242716 4.980390 -86.105800 -8.363810 -64.921100 5.348090 -0.000007 -0.000001 -66.821900 -52.713500 -95.762000 24.328600 0.000019 0.000005 19.168300 12.936800 -57.217200 22.291600 -0.000001 0.000005 28.777100 5.334240 -0.909672 12.994500 -0.242716 -4.980390 92.111900 -6.229340 -71.229400 -5.348130 -0.000001 -0.000004 -51.677900 -51.909600 -85.807900 -24.328900 0.000322 -0.000009 1.586040 1.429030 -48.012800 -22.291500 -0.000108 -0.000004 32.395500 5.596330 -11.125700 -2.192480 -6.469440 -0.000000 179.372000 -22.477200 5.273170 39.081100 -0.000007 -0.000012 0.001570 -0.002925 28.211700 40.985400 -0.000006 -0.000013 7.056970 3.816930 -72.394800 11.754300 -0.000000 0.000003 -0.000193 -0.001799 -16.645500 -2.192510 6.469440 -0.000001 166.102000 14.457600 -177.658000 -39.081100 -0.002282 -0.040193 0.004667 -0.002360 30.042000 -40.985400 0.000008 0.000006 1.467990 17.056900 -69.875500 -11.754300 -0.000006 -0.000006 -0.002748 -0.037715 -18.106800
